<svg xmlns="http://www.w3.org/2000/svg" viewBox="0 0 96 96" role="img" aria-label="Black cat avatar"><circle cx="48" cy="48" r="46" fill="#28223b"/><path d="M24 39 20 20l17 12c7-3 15-3 22 0l17-12-4 19c4 6 6 12 6 19 0 15-13 25-30 25S18 73 18 58c0-7 2-13 6-19Z" fill="#10131d" stroke="#d6b66b" stroke-width="2"/><circle cx="36" cy="55" r="3" fill="#d6b66b"/><circle cx="60" cy="55" r="3" fill="#d6b66b"/><path d="M43 67q5 4 10 0M48 60v5M29 63l12 2M67 63l-12 2" fill="none" stroke="#d6b66b" stroke-linecap="round" stroke-width="2"/></svg>
