<svg xmlns="http://www.w3.org/2000/svg" viewBox="0 0 1400 730" width="1400" height="730">
<defs>
  <radialGradient id="artBg" cx="70%" cy="45%" r="72%"><stop offset="0" stop-color="#132b52"/><stop offset=".48" stop-color="#071327"/><stop offset="1" stop-color="#02040b"/></radialGradient>
  <radialGradient id="vortex" cx="50%" cy="50%" r="50%"><stop offset="0" stop-color="#ffd977" stop-opacity=".22"/><stop offset=".42" stop-color="#102447" stop-opacity=".72"/><stop offset="1" stop-color="#01030b" stop-opacity="0"/></radialGradient>
  <filter id="goldGlow"><feGaussianBlur stdDeviation="8" result="b"/><feMerge><feMergeNode in="b"/><feMergeNode in="SourceGraphic"/></feMerge></filter>
  <filter id="glow"><feGaussianBlur stdDeviation="6" result="b"/><feMerge><feMergeNode in="b"/><feMergeNode in="SourceGraphic"/></feMerge></filter>
  <filter id="soft"><feGaussianBlur stdDeviation="3"/></filter>
  <style>.title{fill:#f7f0ff;font-family:Cinzel,Georgia,serif;font-size:48px;letter-spacing:1.3px}.desc{fill:#e7e0f5;font-family:'EB Garamond',Georgia,serif;font-size:31px}.price{fill:#ffd977;font-family:'Cinzel Decorative',Georgia,serif;font-size:58px}</style>
</defs>
<rect width="1400" height="730" fill="#03040d"/><rect width="1400" height="730" fill="url(#artBg)"/>
<rect x="560" y="0" width="840" height="730" fill="url(#artBg)"/><circle cx="620" cy="28" r="1.0" fill="#ffd977" opacity="0.18"/><circle cx="687" cy="141" r="1.55" fill="#ffd977" opacity="0.26"/><circle cx="754" cy="254" r="2.1" fill="#ffd977" opacity="0.34"/><circle cx="821" cy="367" r="1.0" fill="#ffd977" opacity="0.42"/><circle cx="888" cy="480" r="1.55" fill="#ffd977" opacity="0.50"/><circle cx="955" cy="593" r="2.1" fill="#ffd977" opacity="0.18"/><circle cx="1022" cy="56" r="1.0" fill="#ffd977" opacity="0.26"/><circle cx="1089" cy="169" r="1.55" fill="#ffd977" opacity="0.34"/><circle cx="1156" cy="282" r="2.1" fill="#ffd977" opacity="0.42"/><circle cx="1223" cy="395" r="1.0" fill="#ffd977" opacity="0.50"/><circle cx="1290" cy="508" r="1.55" fill="#ffd977" opacity="0.18"/><circle cx="637" cy="621" r="2.1" fill="#ffd977" opacity="0.26"/><circle cx="704" cy="84" r="1.0" fill="#ffd977" opacity="0.34"/><circle cx="771" cy="197" r="1.55" fill="#ffd977" opacity="0.42"/><circle cx="838" cy="310" r="2.1" fill="#ffd977" opacity="0.50"/><circle cx="905" cy="423" r="1.0" fill="#ffd977" opacity="0.18"/><circle cx="972" cy="536" r="1.55" fill="#ffd977" opacity="0.26"/><circle cx="1039" cy="649" r="2.1" fill="#ffd977" opacity="0.34"/><circle cx="1106" cy="112" r="1.0" fill="#ffd977" opacity="0.42"/><circle cx="1173" cy="225" r="1.55" fill="#ffd977" opacity="0.50"/><circle cx="1240" cy="338" r="2.1" fill="#ffd977" opacity="0.18"/><circle cx="1307" cy="451" r="1.0" fill="#ffd977" opacity="0.26"/><circle cx="654" cy="564" r="1.55" fill="#ffd977" opacity="0.34"/><circle cx="721" cy="677" r="2.1" fill="#ffd977" opacity="0.42"/><circle cx="788" cy="140" r="1.0" fill="#ffd977" opacity="0.50"/><circle cx="855" cy="253" r="1.55" fill="#ffd977" opacity="0.18"/><circle cx="922" cy="366" r="2.1" fill="#ffd977" opacity="0.26"/><circle cx="989" cy="479" r="1.0" fill="#ffd977" opacity="0.34"/><circle cx="1056" cy="592" r="1.55" fill="#ffd977" opacity="0.42"/><circle cx="1123" cy="55" r="2.1" fill="#ffd977" opacity="0.50"/><circle cx="1190" cy="168" r="1.0" fill="#ffd977" opacity="0.18"/><circle cx="1257" cy="281" r="1.55" fill="#ffd977" opacity="0.26"/><circle cx="1324" cy="394" r="2.1" fill="#ffd977" opacity="0.34"/><circle cx="671" cy="507" r="1.0" fill="#ffd977" opacity="0.42"/><path d="M575 230 C700 150,760 320,905 230" stroke="#7c43ff" stroke-width="11" fill="none" stroke-linecap="round" filter="url(#soft)" opacity=".9"/><path d="M575 280 C700 200,760 370,905 280" stroke="#d74da8" stroke-width="11" fill="none" stroke-linecap="round" filter="url(#soft)" opacity=".9"/><path d="M575 330 C700 250,760 420,905 330" stroke="#4e9dff" stroke-width="11" fill="none" stroke-linecap="round" filter="url(#soft)" opacity=".9"/><path d="M575 380 C700 300,760 470,905 380" stroke="#e8b84b" stroke-width="11" fill="none" stroke-linecap="round" filter="url(#soft)" opacity=".9"/><path d="M575 430 C700 350,760 520,905 430" stroke="#b446ff" stroke-width="11" fill="none" stroke-linecap="round" filter="url(#soft)" opacity=".9"/><path d="M575 480 C700 400,760 570,905 480" stroke="#ff6ab7" stroke-width="11" fill="none" stroke-linecap="round" filter="url(#soft)" opacity=".9"/><g opacity="1">
      
      <ellipse cx="935" cy="573.0" rx="73.44" ry="15.3" fill="#000" opacity=".35"/>
      <path d="M906.44 297.6 C863.6 360.84000000000003,861.56 468.96000000000004,886.04 558.72 L916.64 558.72 C902.36 473.03999999999996,914.6 411.84000000000003,935 391.44 C955.4 411.84000000000003,967.64 473.03999999999996,953.36 558.72 L983.96 558.72 C1008.44 468.96000000000004,1006.4 360.84000000000003,963.56 297.6 Z" fill="#06111b" stroke="#8ec7ff" stroke-width="3.5700000000000003" opacity=".96"/>
      <circle cx="935" cy="258.84" r="36.72" fill="#06111b" stroke="#8ec7ff" stroke-width="3.5700000000000003"/>
      <path d="M859.52 346.56 C906.44 369.0,963.56 369.0,1010.48 346.56" fill="none" stroke="#8ec7ff" stroke-width="4.08" opacity=".74"/>
    </g><path d="M976 145 L905 560" stroke="#ffd977" stroke-width="18" stroke-linecap="round" filter="url(#goldGlow)"/><path d="M944 355 C1035 300,1090 250,1182 226" stroke="#ffd977" stroke-width="7" opacity=".72"/>
<rect x="0" y="0" width="610" height="730" fill="rgba(2,3,10,.61)"/>
<rect x="2" y="2" width="1396" height="726" fill="none" stroke="#d9a642" stroke-opacity=".42" stroke-width="3"/>
<text x="82" y="90" fill="#ffd977" font-family="Cinzel, Georgia, serif" font-size="31" letter-spacing="5">02</text>
<text x="82" y="158" class="title">Cord Removal &amp;</text><text x="82" y="214" class="title">Transmutation</text>
<text x="82" y="316" class="price">From $40</text>
<text x="82" y="374" class="desc">Targeted removal of cords, hooks,</text><text x="82" y="412" class="desc">and emotional charges tied to</text><text x="82" y="450" class="desc">people, places, or patterns that</text><text x="82" y="488" class="desc">keep returning.</text>
<circle cx="1272" cy="578" r="70" fill="rgba(2,3,10,.58)" stroke="#ffd977" stroke-width="5" filter="url(#goldGlow)"/><polygon points="1252,535 1306,578 1252,621" fill="#ffd977"/>
</svg>