<svg xmlns="http://www.w3.org/2000/svg" viewBox="0 0 1400 730" width="1400" height="730">
<defs>
  <radialGradient id="artBg" cx="70%" cy="45%" r="72%"><stop offset="0" stop-color="#132b52"/><stop offset=".48" stop-color="#071327"/><stop offset="1" stop-color="#02040b"/></radialGradient>
  <radialGradient id="vortex" cx="50%" cy="50%" r="50%"><stop offset="0" stop-color="#ffd977" stop-opacity=".22"/><stop offset=".42" stop-color="#102447" stop-opacity=".72"/><stop offset="1" stop-color="#01030b" stop-opacity="0"/></radialGradient>
  <filter id="goldGlow"><feGaussianBlur stdDeviation="8" result="b"/><feMerge><feMergeNode in="b"/><feMergeNode in="SourceGraphic"/></feMerge></filter>
  <filter id="glow"><feGaussianBlur stdDeviation="6" result="b"/><feMerge><feMergeNode in="b"/><feMergeNode in="SourceGraphic"/></feMerge></filter>
  <filter id="soft"><feGaussianBlur stdDeviation="3"/></filter>
  <style>.title{fill:#f7f0ff;font-family:Cinzel,Georgia,serif;font-size:48px;letter-spacing:1.3px}.desc{fill:#e7e0f5;font-family:'EB Garamond',Georgia,serif;font-size:31px}.price{fill:#ffd977;font-family:'Cinzel Decorative',Georgia,serif;font-size:58px}</style>
</defs>
<rect width="1400" height="730" fill="#03040d"/><rect width="1400" height="730" fill="url(#artBg)"/>
<rect x="560" y="0" width="840" height="730" fill="url(#artBg)"/><circle cx="620" cy="28" r="1.0" fill="#ffd977" opacity="0.18"/><circle cx="687" cy="141" r="1.55" fill="#ffd977" opacity="0.26"/><circle cx="754" cy="254" r="2.1" fill="#ffd977" opacity="0.34"/><circle cx="821" cy="367" r="1.0" fill="#ffd977" opacity="0.42"/><circle cx="888" cy="480" r="1.55" fill="#ffd977" opacity="0.50"/><circle cx="955" cy="593" r="2.1" fill="#ffd977" opacity="0.18"/><circle cx="1022" cy="56" r="1.0" fill="#ffd977" opacity="0.26"/><circle cx="1089" cy="169" r="1.55" fill="#ffd977" opacity="0.34"/><circle cx="1156" cy="282" r="2.1" fill="#ffd977" opacity="0.42"/><circle cx="1223" cy="395" r="1.0" fill="#ffd977" opacity="0.50"/><circle cx="1290" cy="508" r="1.55" fill="#ffd977" opacity="0.18"/><circle cx="637" cy="621" r="2.1" fill="#ffd977" opacity="0.26"/><circle cx="704" cy="84" r="1.0" fill="#ffd977" opacity="0.34"/><circle cx="771" cy="197" r="1.55" fill="#ffd977" opacity="0.42"/><circle cx="838" cy="310" r="2.1" fill="#ffd977" opacity="0.50"/><circle cx="905" cy="423" r="1.0" fill="#ffd977" opacity="0.18"/><circle cx="972" cy="536" r="1.55" fill="#ffd977" opacity="0.26"/><circle cx="1039" cy="649" r="2.1" fill="#ffd977" opacity="0.34"/><circle cx="1106" cy="112" r="1.0" fill="#ffd977" opacity="0.42"/><circle cx="1173" cy="225" r="1.55" fill="#ffd977" opacity="0.50"/><circle cx="1240" cy="338" r="2.1" fill="#ffd977" opacity="0.18"/><circle cx="1307" cy="451" r="1.0" fill="#ffd977" opacity="0.26"/><circle cx="654" cy="564" r="1.55" fill="#ffd977" opacity="0.34"/><circle cx="721" cy="677" r="2.1" fill="#ffd977" opacity="0.42"/><circle cx="788" cy="140" r="1.0" fill="#ffd977" opacity="0.50"/><circle cx="855" cy="253" r="1.55" fill="#ffd977" opacity="0.18"/><circle cx="922" cy="366" r="2.1" fill="#ffd977" opacity="0.26"/><circle cx="989" cy="479" r="1.0" fill="#ffd977" opacity="0.34"/><circle cx="1056" cy="592" r="1.55" fill="#ffd977" opacity="0.42"/><circle cx="1123" cy="55" r="2.1" fill="#ffd977" opacity="0.50"/><circle cx="1190" cy="168" r="1.0" fill="#ffd977" opacity="0.18"/><circle cx="1257" cy="281" r="1.55" fill="#ffd977" opacity="0.26"/><circle cx="1324" cy="394" r="2.1" fill="#ffd977" opacity="0.34"/><circle cx="671" cy="507" r="1.0" fill="#ffd977" opacity="0.42"/><circle cx="930" cy="360" r="240" fill="url(#vortex)" opacity=".82"/><g opacity=".95">
      <circle cx="930" cy="360" r="210" fill="none" stroke="#ffd977" stroke-width="7" opacity=".75" filter="url(#glow)"/>
      <circle cx="930" cy="360" r="151.2" fill="none" stroke="#8ec7ff" stroke-width="2" opacity=".28"/>
      <circle cx="930" cy="360" r="100.8" fill="none" stroke="#ffd977" stroke-width="2" opacity=".28"/>
      <path d="M720 360 H1140 M930 150 V570" stroke="#ffd977" stroke-width="2" opacity=".16"/>
    </g><g opacity="1">
      
      <ellipse cx="930" cy="593.0" rx="79.2" ry="16.5" fill="#000" opacity=".35"/>
      <path d="M899.2 296.0 C853.0 364.2,850.8 480.8,877.2 577.6 L910.2 577.6 C894.8 485.20000000000005,908.0 419.2,930 397.2 C952.0 419.2,965.2 485.20000000000005,949.8 577.6 L982.8 577.6 C1009.2 480.8,1007.0 364.2,960.8 296.0 Z" fill="#06111b" stroke="#d8ebff" stroke-width="3.8500000000000005" opacity=".96"/>
      <circle cx="930" cy="254.2" r="39.6" fill="#06111b" stroke="#d8ebff" stroke-width="3.8500000000000005"/>
      <path d="M848.6 348.8 C899.2 373.0,960.8 373.0,1011.4 348.8" fill="none" stroke="#d8ebff" stroke-width="4.4" opacity=".74"/>
    </g><path d="M750 175 C890 245,980 245,1110 170 M745 545 C890 470,980 470,1115 548" fill="none" stroke="#0c1838" stroke-width="38" opacity=".65"/>
<rect x="0" y="0" width="610" height="730" fill="rgba(2,3,10,.61)"/>
<rect x="2" y="2" width="1396" height="726" fill="none" stroke="#d9a642" stroke-opacity=".42" stroke-width="3"/>
<text x="82" y="90" fill="#ffd977" font-family="Cinzel, Georgia, serif" font-size="31" letter-spacing="5">03</text>
<text x="82" y="158" class="title">Energy Alchemy</text><text x="82" y="214" class="title">Exorcism</text>
<text x="82" y="316" class="price">$100</text>
<text x="82" y="374" class="desc">Deep spiritual clearing for</text><text x="82" y="412" class="desc">intense concerns. Requires intake</text><text x="82" y="450" class="desc">assessment first. Not for the</text><text x="82" y="488" class="desc">faint of heart.</text>
<circle cx="1272" cy="578" r="70" fill="rgba(2,3,10,.58)" stroke="#ffd977" stroke-width="5" filter="url(#goldGlow)"/><polygon points="1252,535 1306,578 1252,621" fill="#ffd977"/>
</svg>