<svg xmlns="http://www.w3.org/2000/svg" viewBox="0 0 1400 730" width="1400" height="730">
<defs><radialGradient id="artBg" cx="76%" cy="45%" r="72%"><stop offset="0" stop-color="#132b52"/><stop offset=".48" stop-color="#071327"/><stop offset="1" stop-color="#02040b"/></radialGradient><radialGradient id="vortex" cx="50%" cy="50%" r="50%"><stop offset="0" stop-color="#ffd977" stop-opacity=".24"/><stop offset=".42" stop-color="#102447" stop-opacity=".74"/><stop offset="1" stop-color="#01030b" stop-opacity="0"/></radialGradient><filter id="goldGlow"><feGaussianBlur stdDeviation="8" result="b"/><feMerge><feMergeNode in="b"/><feMergeNode in="SourceGraphic"/></feMerge></filter><filter id="blueGlow"><feGaussianBlur stdDeviation="14" result="b"/><feMerge><feMergeNode in="b"/><feMergeNode in="SourceGraphic"/></feMerge></filter><filter id="soft"><feGaussianBlur stdDeviation="4"/></filter><style>.title{fill:#f7f0ff;font-family:Cinzel,Georgia,serif;font-size:48px;letter-spacing:1.3px}.desc{fill:#e7e0f5;font-family:'EB Garamond',Georgia,serif;font-size:31px}.price{fill:#ffd977;font-family:'Cinzel Decorative',Georgia,serif;font-size:58px}</style></defs>
<rect width="1400" height="730" fill="#03040d"/><rect width="1400" height="730" fill="url(#artBg)"/><rect x="560" y="0" width="840" height="730" fill="url(#artBg)"/><circle cx="620" cy="24" r="1.0" fill="#8ec7ff" opacity="0.16"/><circle cx="693" cy="141" r="1.45" fill="#ffd977" opacity="0.22"/><circle cx="766" cy="258" r="1.9" fill="#ffd977" opacity="0.28"/><circle cx="839" cy="375" r="2.35" fill="#8ec7ff" opacity="0.34"/><circle cx="912" cy="492" r="1.0" fill="#ffd977" opacity="0.40"/><circle cx="985" cy="609" r="1.45" fill="#ffd977" opacity="0.46"/><circle cx="1058" cy="76" r="1.9" fill="#8ec7ff" opacity="0.52"/><circle cx="1131" cy="193" r="2.35" fill="#ffd977" opacity="0.16"/><circle cx="1204" cy="310" r="1.0" fill="#ffd977" opacity="0.22"/><circle cx="1277" cy="427" r="1.45" fill="#8ec7ff" opacity="0.28"/><circle cx="630" cy="544" r="1.9" fill="#ffd977" opacity="0.34"/><circle cx="703" cy="661" r="2.35" fill="#ffd977" opacity="0.40"/><circle cx="776" cy="128" r="1.0" fill="#8ec7ff" opacity="0.46"/><circle cx="849" cy="245" r="1.45" fill="#ffd977" opacity="0.52"/><circle cx="922" cy="362" r="1.9" fill="#ffd977" opacity="0.16"/><circle cx="995" cy="479" r="2.35" fill="#8ec7ff" opacity="0.22"/><circle cx="1068" cy="596" r="1.0" fill="#ffd977" opacity="0.28"/><circle cx="1141" cy="63" r="1.45" fill="#ffd977" opacity="0.34"/><circle cx="1214" cy="180" r="1.9" fill="#8ec7ff" opacity="0.40"/><circle cx="1287" cy="297" r="2.35" fill="#ffd977" opacity="0.46"/><circle cx="640" cy="414" r="1.0" fill="#ffd977" opacity="0.52"/><circle cx="713" cy="531" r="1.45" fill="#8ec7ff" opacity="0.16"/><circle cx="786" cy="648" r="1.9" fill="#ffd977" opacity="0.22"/><circle cx="859" cy="115" r="2.35" fill="#ffd977" opacity="0.28"/><circle cx="932" cy="232" r="1.0" fill="#8ec7ff" opacity="0.34"/><circle cx="1005" cy="349" r="1.45" fill="#ffd977" opacity="0.40"/><circle cx="1078" cy="466" r="1.9" fill="#ffd977" opacity="0.46"/><circle cx="1151" cy="583" r="2.35" fill="#8ec7ff" opacity="0.52"/><circle cx="1224" cy="50" r="1.0" fill="#ffd977" opacity="0.16"/><circle cx="1297" cy="167" r="1.45" fill="#ffd977" opacity="0.22"/><circle cx="650" cy="284" r="1.9" fill="#8ec7ff" opacity="0.28"/><circle cx="723" cy="401" r="2.35" fill="#ffd977" opacity="0.34"/><circle cx="796" cy="518" r="1.0" fill="#ffd977" opacity="0.40"/><circle cx="869" cy="635" r="1.45" fill="#8ec7ff" opacity="0.46"/><circle cx="942" cy="102" r="1.9" fill="#ffd977" opacity="0.52"/><circle cx="1015" cy="219" r="2.35" fill="#ffd977" opacity="0.16"/><circle cx="1088" cy="336" r="1.0" fill="#8ec7ff" opacity="0.22"/><circle cx="1161" cy="453" r="1.45" fill="#ffd977" opacity="0.28"/><circle cx="1234" cy="570" r="1.9" fill="#ffd977" opacity="0.34"/><circle cx="1307" cy="37" r="2.35" fill="#8ec7ff" opacity="0.40"/><circle cx="660" cy="154" r="1.0" fill="#ffd977" opacity="0.46"/><circle cx="733" cy="271" r="1.45" fill="#ffd977" opacity="0.52"/><circle cx="806" cy="388" r="1.9" fill="#8ec7ff" opacity="0.16"/><circle cx="879" cy="505" r="2.35" fill="#ffd977" opacity="0.22"/><path d="M645 540 L1048 260" stroke="#ffd977" stroke-width="18" stroke-linecap="round" filter="url(#goldGlow)"/><circle cx="760" cy="464" r="68" fill="#8ec7ff" opacity=".09" filter="url(#blueGlow)"/><g transform="translate(890 330) rotate(-13)" filter="url(#goldGlow)"><rect x="-72" y="-120" width="144" height="224" rx="12" fill="#09081f" stroke="#ffd977" stroke-width="6"/><circle r="32" fill="none" stroke="#ffd977" stroke-width="5"/><path d="M-44 60 H44 M0 -68 V68" stroke="#ffd977" stroke-width="4" opacity=".7"/></g><g transform="translate(1050 310) rotate(4)" filter="url(#goldGlow)"><rect x="-72" y="-120" width="144" height="224" rx="12" fill="#09081f" stroke="#ffd977" stroke-width="6"/><circle r="32" fill="none" stroke="#ffd977" stroke-width="5"/><path d="M-44 60 H44 M0 -68 V68" stroke="#ffd977" stroke-width="4" opacity=".7"/></g><g transform="translate(1210 335) rotate(16)" filter="url(#goldGlow)"><rect x="-72" y="-120" width="144" height="224" rx="12" fill="#09081f" stroke="#ffd977" stroke-width="6"/><circle r="32" fill="none" stroke="#ffd977" stroke-width="5"/><path d="M-44 60 H44 M0 -68 V68" stroke="#ffd977" stroke-width="4" opacity=".7"/></g><rect x="0" y="0" width="610" height="730" fill="rgba(2,3,10,.61)"/><rect x="2" y="2" width="1396" height="726" fill="none" stroke="#d9a642" stroke-opacity=".42" stroke-width="3"/><text x="82" y="90" fill="#ffd977" font-family="Cinzel, Georgia, serif" font-size="31" letter-spacing="5">07</text><text x="82" y="158" class="title">Removal + Tarot Bundle</text><text x="82" y="264" class="price">$100</text><text x="82" y="322" class="desc">Bundled removal session plus</text><text x="82" y="360" class="desc">tarot support for direction and</text><text x="82" y="398" class="desc">next steps after the clearing.</text><circle cx="1272" cy="578" r="70" fill="rgba(2,3,10,.58)" stroke="#ffd977" stroke-width="5" filter="url(#goldGlow)"/><polygon points="1252,535 1306,578 1252,621" fill="#ffd977"/></svg>